STARTFONT 2.1
COMMENT converted Oberon font (using FontToBDF by R.Crelier 10.1.91)
FONT GreekSyntax20.Scn.Fnt
SIZE 20 75 75
FONTBOUNDINGBOX  18 22 0 -5
STARTPROPERTIES 3
FONT_ASCENT 17
FONT_DESCENT 5
DEFAULT_CHAR 0
ENDPROPERTIES
CHARS 95
STARTCHAR c0
ENCODING -1 0
SWIDTH 0 0
DWIDTH 0 0
BBX 0 0 0 0
BITMAP
ENDCHAR
STARTCHAR c32
ENCODING -1 32
SWIDTH 193 0
DWIDTH 6 0
BBX 0 0 0 0
BITMAP
ENDCHAR
STARTCHAR c33
ENCODING -1 33
SWIDTH 193 0
DWIDTH 6 0
BBX 2 15 2 0
BITMAP
40
40
40
40
40
40
40
40
40
40
00
00
00
C0
C0
ENDCHAR
STARTCHAR c34
ENCODING -1 34
SWIDTH 290 0
DWIDTH 9 0
BBX 9 15 0 0
BITMAP
C180
2200
2200
1400
1400
1400
0800
0800
0800
0800
0800
0800
0800
0800
0800
ENDCHAR
STARTCHAR c35
ENCODING -1 35
SWIDTH 387 0
DWIDTH 12 0
BBX 10 15 1 0
BITMAP
2100
2100
2100
2100
2100
FFC0
2100
2100
2100
FFC0
2100
2100
2100
2100
2100
ENDCHAR
STARTCHAR c36
ENCODING -1 36
SWIDTH 258 0
DWIDTH 8 0
BBX 7 11 1 0
BITMAP
3E
40
80
80
80
80
60
38
04
04
38
ENDCHAR
STARTCHAR c37
ENCODING -1 37
SWIDTH 483 0
DWIDTH 15 0
BBX 13 15 1 0
BITMAP
7010
8820
8820
8840
8880
8900
7100
0200
0470
0888
0888
1088
2088
4088
4070
ENDCHAR
STARTCHAR c38
ENCODING -1 38
SWIDTH 419 0
DWIDTH 13 0
BBX 11 15 1 0
BITMAP
0E00
1100
2100
2100
2200
1400
0820
1420
2420
4220
8140
8140
8080
4140
3E20
ENDCHAR
STARTCHAR c40
ENCODING -1 40
SWIDTH 258 0
DWIDTH 8 0
BBX 4 20 2 -4
BITMAP
10
20
20
40
40
40
80
80
80
80
80
80
80
80
40
40
40
20
20
10
ENDCHAR
STARTCHAR c41
ENCODING -1 41
SWIDTH 258 0
DWIDTH 8 0
BBX 4 20 2 -4
BITMAP
80
40
40
20
20
20
10
10
10
10
10
10
10
10
20
20
20
40
40
80
ENDCHAR
STARTCHAR c42
ENCODING -1 42
SWIDTH 387 0
DWIDTH 12 0
BBX 10 11 1 0
BITMAP
2100
2100
1200
1200
0C00
FFC0
0C00
1200
1200
2100
2100
ENDCHAR
STARTCHAR c43
ENCODING -1 43
SWIDTH 387 0
DWIDTH 12 0
BBX 11 11 0 0
BITMAP
0400
0400
0400
0400
0400
FFE0
0400
0400
0400
0400
0400
ENDCHAR
STARTCHAR c44
ENCODING -1 44
SWIDTH 129 0
DWIDTH 4 0
BBX 2 5 1 -3
BITMAP
C0
C0
80
80
80
ENDCHAR
STARTCHAR c45
ENCODING -1 45
SWIDTH 387 0
DWIDTH 12 0
BBX 10 1 1 5
BITMAP
FFC0
ENDCHAR
STARTCHAR c46
ENCODING -1 46
SWIDTH 129 0
DWIDTH 4 0
BBX 2 2 1 0
BITMAP
C0
C0
ENDCHAR
STARTCHAR c47
ENCODING -1 47
SWIDTH 290 0
DWIDTH 9 0
BBX 7 15 1 0
BITMAP
02
02
04
04
08
08
10
10
10
20
20
40
40
80
80
ENDCHAR
STARTCHAR c48
ENCODING -1 48
SWIDTH 354 0
DWIDTH 11 0
BBX 9 15 1 0
BITMAP
1C00
6300
4100
8080
8080
8080
8080
8080
8080
8080
8080
8080
4100
6300
1C00
ENDCHAR
STARTCHAR c49
ENCODING -1 49
SWIDTH 354 0
DWIDTH 11 0
BBX 5 15 2 0
BITMAP
08
18
28
48
88
08
08
08
08
08
08
08
08
08
08
ENDCHAR
STARTCHAR c50
ENCODING -1 50
SWIDTH 354 0
DWIDTH 11 0
BBX 9 15 1 0
BITMAP
7C00
0200
0100
0100
0100
0100
0200
0200
0400
0400
0800
1000
2000
4000
FF80
ENDCHAR
STARTCHAR c51
ENCODING -1 51
SWIDTH 354 0
DWIDTH 11 0
BBX 7 15 2 0
BITMAP
F8
04
02
02
02
02
04
F8
04
02
02
02
02
04
F8
ENDCHAR
STARTCHAR c52
ENCODING -1 52
SWIDTH 354 0
DWIDTH 11 0
BBX 11 15 0 0
BITMAP
0100
0300
0500
0500
0900
1100
1100
2100
4100
4100
FFE0
0100
0100
0100
0100
ENDCHAR
STARTCHAR c53
ENCODING -1 53
SWIDTH 354 0
DWIDTH 11 0
BBX 7 15 2 0
BITMAP
7E
40
40
80
80
80
F8
04
02
02
02
02
04
08
F0
ENDCHAR
STARTCHAR c54
ENCODING -1 54
SWIDTH 354 0
DWIDTH 11 0
BBX 9 15 2 0
BITMAP
0380
0C00
1000
2000
4000
4000
8000
BC00
C200
8100
8100
8100
8100
4200
3C00
ENDCHAR
STARTCHAR c55
ENCODING -1 55
SWIDTH 354 0
DWIDTH 11 0
BBX 9 15 1 0
BITMAP
FF80
0100
0100
0200
0200
0400
0400
0800
0800
1000
1000
2000
2000
4000
4000
ENDCHAR
STARTCHAR c56
ENCODING -1 56
SWIDTH 354 0
DWIDTH 11 0
BBX 9 15 1 0
BITMAP
3E00
4100
8080
8080
8080
4100
2200
1C00
2200
4100
8080
8080
8080
4100
3E00
ENDCHAR
STARTCHAR c57
ENCODING -1 57
SWIDTH 354 0
DWIDTH 11 0
BBX 9 15 0 0
BITMAP
1E00
2100
4080
4080
4080
4080
2180
1E80
0080
0100
0100
0200
0400
1800
E000
ENDCHAR
STARTCHAR c58
ENCODING -1 58
SWIDTH 161 0
DWIDTH 5 0
BBX 2 11 2 0
BITMAP
C0
C0
00
00
00
00
00
00
00
C0
C0
ENDCHAR
STARTCHAR c59
ENCODING -1 59
SWIDTH 161 0
DWIDTH 5 0
BBX 2 14 2 -3
BITMAP
C0
C0
00
00
00
00
00
00
00
C0
C0
80
80
80
ENDCHAR
STARTCHAR c60
ENCODING -1 60
SWIDTH 387 0
DWIDTH 12 0
BBX 11 11 0 0
BITMAP
0060
0180
0200
0C00
3000
C000
3000
0C00
0200
0180
0060
ENDCHAR
STARTCHAR c61
ENCODING -1 61
SWIDTH 387 0
DWIDTH 12 0
BBX 10 5 1 3
BITMAP
FFC0
0000
0000
0000
FFC0
ENDCHAR
STARTCHAR c62
ENCODING -1 62
SWIDTH 387 0
DWIDTH 12 0
BBX 11 11 1 0
BITMAP
C000
3000
0800
0600
0180
0060
0180
0600
0800
3000
C000
ENDCHAR
STARTCHAR c63
ENCODING -1 63
SWIDTH 290 0
DWIDTH 9 0
BBX 6 15 2 0
BITMAP
F8
04
04
04
04
08
10
10
20
20
20
00
00
60
60
ENDCHAR
STARTCHAR c64
ENCODING -1 64
SWIDTH 387 0
DWIDTH 12 0
BBX 10 10 1 1
BITMAP
7040
8840
8440
8380
0000
0000
FFC0
0000
0000
FFC0
ENDCHAR
STARTCHAR c65
ENCODING -1 65
SWIDTH 387 0
DWIDTH 12 0
BBX 12 15 0 0
BITMAP
0600
0600
0600
0900
0900
1080
1080
1080
2040
3FC0
4020
4020
4020
8010
8010
ENDCHAR
STARTCHAR c66
ENCODING -1 66
SWIDTH 387 0
DWIDTH 12 0
BBX 8 15 2 0
BITMAP
FC
82
81
81
81
81
82
FC
82
81
81
81
81
82
FC
ENDCHAR
STARTCHAR c67
ENCODING -1 67
SWIDTH 419 0
DWIDTH 13 0
BBX 11 15 1 0
BITMAP
8020
4040
4040
2080
1100
1100
0A00
0400
0A00
1100
1100
2080
4040
4040
8020
ENDCHAR
STARTCHAR c68
ENCODING -1 68
SWIDTH 387 0
DWIDTH 12 0
BBX 12 15 0 0
BITMAP
0600
0600
0600
0900
0900
1080
1080
2040
2040
4020
4020
4020
8010
8010
FFF0
ENDCHAR
STARTCHAR c69
ENCODING -1 69
SWIDTH 322 0
DWIDTH 10 0
BBX 7 15 2 0
BITMAP
FE
80
80
80
80
80
80
FE
80
80
80
80
80
80
FE
ENDCHAR
STARTCHAR c70
ENCODING -1 70
SWIDTH 483 0
DWIDTH 15 0
BBX 13 19 1 -2
BITMAP
0200
0200
0200
0F80
3260
4210
4210
8208
8208
8208
8208
8208
4210
4210
3260
0F80
0200
0200
0200
ENDCHAR
STARTCHAR c71
ENCODING -1 71
SWIDTH 290 0
DWIDTH 9 0
BBX 7 15 2 0
BITMAP
FE
80
80
80
80
80
80
80
80
80
80
80
80
80
80
ENDCHAR
STARTCHAR c72
ENCODING -1 72
SWIDTH 451 0
DWIDTH 14 0
BBX 10 15 2 0
BITMAP
8040
8040
8040
8040
8040
8040
8040
FFC0
8040
8040
8040
8040
8040
8040
8040
ENDCHAR
STARTCHAR c73
ENCODING -1 73
SWIDTH 161 0
DWIDTH 5 0
BBX 1 15 2 0
BITMAP
80
80
80
80
80
80
80
80
80
80
80
80
80
80
80
ENDCHAR
STARTCHAR c74
ENCODING -1 74
SWIDTH 419 0
DWIDTH 13 0
BBX 11 15 2 0
BITMAP
3E00
4100
4080
4080
3FE0
0080
8080
8080
8080
8080
8080
8080
8080
4100
3E00
ENDCHAR
STARTCHAR c75
ENCODING -1 75
SWIDTH 387 0
DWIDTH 12 0
BBX 10 15 2 0
BITMAP
8040
8080
8100
8200
8400
8800
9000
A000
9000
8800
8400
8200
8100
8080
8040
ENDCHAR
STARTCHAR c76
ENCODING -1 76
SWIDTH 387 0
DWIDTH 12 0
BBX 12 15 0 0
BITMAP
0600
0600
0600
0900
0900
1080
1080
1080
2040
2040
4020
4020
4020
8010
8010
ENDCHAR
STARTCHAR c77
ENCODING -1 77
SWIDTH 612 0
DWIDTH 19 0
BBX 17 15 1 0
BITMAP
100400
100400
100400
280A00
280A00
241200
241200
422100
422100
422100
414100
814080
808080
808080
808080
ENDCHAR
STARTCHAR c78
ENCODING -1 78
SWIDTH 483 0
DWIDTH 15 0
BBX 11 15 2 0
BITMAP
8020
C020
A020
A020
9020
8820
8820
8420
8220
8220
8120
80A0
80A0
8060
8020
ENDCHAR
STARTCHAR c79
ENCODING -1 79
SWIDTH 516 0
DWIDTH 16 0
BBX 14 15 1 0
BITMAP
0780
1860
2010
4008
4008
8004
8004
8004
8004
8004
4008
4008
2010
1860
0780
ENDCHAR
STARTCHAR c80
ENCODING -1 80
SWIDTH 451 0
DWIDTH 14 0
BBX 10 15 2 0
BITMAP
FFC0
8040
8040
8040
8040
8040
8040
8040
8040
8040
8040
8040
8040
8040
8040
ENDCHAR
STARTCHAR c81
ENCODING -1 81
SWIDTH 516 0
DWIDTH 16 0
BBX 14 15 1 0
BITMAP
0780
1860
2010
4008
4008
8004
8004
BFF4
8004
8004
4008
4008
2010
1860
0780
ENDCHAR
STARTCHAR c82
ENCODING -1 82
SWIDTH 322 0
DWIDTH 10 0
BBX 8 15 2 0
BITMAP
FC
82
81
81
81
81
82
FC
80
80
80
80
80
80
80
ENDCHAR
STARTCHAR c83
ENCODING -1 83
SWIDTH 322 0
DWIDTH 10 0
BBX 9 15 0 0
BITMAP
FF80
4000
2000
1000
0800
0400
0200
0100
0200
0400
0800
1000
2000
4000
FF80
ENDCHAR
STARTCHAR c84
ENCODING -1 84
SWIDTH 354 0
DWIDTH 11 0
BBX 11 15 0 0
BITMAP
FFE0
0400
0400
0400
0400
0400
0400
0400
0400
0400
0400
0400
0400
0400
0400
ENDCHAR
STARTCHAR c85
ENCODING -1 85
SWIDTH 354 0
DWIDTH 11 0
BBX 9 15 1 0
BITMAP
8080
8080
4100
4100
2200
2200
1400
1400
0800
0800
0800
0800
0800
0800
0800
ENDCHAR
STARTCHAR c86
ENCODING -1 86
SWIDTH 290 0
DWIDTH 9 0
BBX 8 15 1 -4
BITMAP
1F
60
40
80
80
80
80
80
40
3C
02
02
02
04
38
ENDCHAR
STARTCHAR c87
ENCODING -1 87
SWIDTH 483 0
DWIDTH 15 0
BBX 13 15 1 0
BITMAP
0F80
3060
4010
4010
8008
8008
8008
8008
8008
8008
4010
4010
2020
18C0
F8F8
ENDCHAR
STARTCHAR c88
ENCODING -1 88
SWIDTH 387 0
DWIDTH 12 0
BBX 10 15 1 0
BITMAP
FFC0
0000
0000
0000
0000
0000
0000
7F80
0000
0000
0000
0000
0000
0000
FFC0
ENDCHAR
STARTCHAR c89
ENCODING -1 89
SWIDTH 354 0
DWIDTH 11 0
BBX 11 15 0 0
BITMAP
8020
8020
4040
2080
2080
1100
0A00
0A00
0400
0400
0400
0400
0400
0400
0400
ENDCHAR
STARTCHAR c90
ENCODING -1 90
SWIDTH 322 0
DWIDTH 10 0
BBX 10 15 0 0
BITMAP
FFC0
0080
0080
0100
0200
0200
0400
0400
0800
1000
1000
2000
4000
4000
FFC0
ENDCHAR
STARTCHAR c91
ENCODING -1 91
SWIDTH 258 0
DWIDTH 8 0
BBX 4 20 2 -4
BITMAP
F0
80
80
80
80
80
80
80
80
80
80
80
80
80
80
80
80
80
80
F0
ENDCHAR
STARTCHAR c92
ENCODING -1 92
SWIDTH 387 0
DWIDTH 12 0
BBX 10 8 1 2
BITMAP
0C00
0C00
0000
0000
0000
0000
C0C0
C0C0
ENDCHAR
STARTCHAR c93
ENCODING -1 93
SWIDTH 258 0
DWIDTH 8 0
BBX 4 20 2 -4
BITMAP
F0
10
10
10
10
10
10
10
10
10
10
10
10
10
10
10
10
10
10
F0
ENDCHAR
STARTCHAR c94
ENCODING -1 94
SWIDTH 354 0
DWIDTH 11 0
BBX 9 11 1 0
BITMAP
0800
0800
0800
0800
0800
0800
0800
0800
0800
0800
FF80
ENDCHAR
STARTCHAR c95
ENCODING -1 95
SWIDTH 354 0
DWIDTH 11 0
BBX 11 1 0 -5
BITMAP
FFE0
ENDCHAR
STARTCHAR c96
ENCODING -1 96
SWIDTH 354 0
DWIDTH 11 0
BBX 11 1 0 14
BITMAP
FFE0
ENDCHAR
STARTCHAR c97
ENCODING -1 97
SWIDTH 419 0
DWIDTH 13 0
BBX 12 11 1 0
BITMAP
1C20
6220
4140
8140
8080
8080
8180
8140
8240
4440
3830
ENDCHAR
STARTCHAR c98
ENCODING -1 98
SWIDTH 354 0
DWIDTH 11 0
BBX 8 21 2 -4
BITMAP
3C
42
82
82
82
84
B8
84
82
81
81
81
81
81
81
82
BC
80
80
80
80
ENDCHAR
STARTCHAR c99
ENCODING -1 99
SWIDTH 290 0
DWIDTH 9 0
BBX 9 15 0 -4
BITMAP
C100
2100
2200
2200
1400
1400
0800
0800
0800
1400
1400
2200
2200
4200
4180
ENDCHAR
STARTCHAR c100
ENCODING -1 100
SWIDTH 354 0
DWIDTH 11 0
BBX 9 17 1 0
BITMAP
FF80
4000
2000
1000
0800
0400
1E00
6300
4100
8080
8080
8080
8080
8080
4100
6300
1C00
ENDCHAR
STARTCHAR c101
ENCODING -1 101
SWIDTH 258 0
DWIDTH 8 0
BBX 5 11 2 0
BITMAP
78
80
80
80
40
38
40
80
80
80
78
ENDCHAR
STARTCHAR c102
ENCODING -1 102
SWIDTH 354 0
DWIDTH 11 0
BBX 9 19 1 -4
BITMAP
0800
0800
0800
0800
1C00
6B00
4900
8880
8880
8880
8880
8880
4900
6B00
1C00
0800
0800
0800
0800
ENDCHAR
STARTCHAR c103
ENCODING -1 103
SWIDTH 258 0
DWIDTH 8 0
BBX 8 16 0 -5
BITMAP
C1
22
22
14
14
18
18
18
28
28
24
44
44
44
44
38
ENDCHAR
STARTCHAR c104
ENCODING -1 104
SWIDTH 387 0
DWIDTH 12 0
BBX 8 15 2 -4
BITMAP
9E
A1
C1
81
81
81
81
81
81
81
81
01
01
01
01
ENDCHAR
STARTCHAR c105
ENCODING -1 105
SWIDTH 193 0
DWIDTH 6 0
BBX 4 11 2 0
BITMAP
80
80
80
80
80
80
80
80
80
90
60
ENDCHAR
STARTCHAR c106
ENCODING -1 106
SWIDTH 419 0
DWIDTH 13 0
BBX 11 15 1 -4
BITMAP
3380
4440
8420
8420
8420
8420
8420
8420
4440
2480
1F00
0400
0400
0400
0400
ENDCHAR
STARTCHAR c107
ENCODING -1 107
SWIDTH 322 0
DWIDTH 10 0
BBX 8 11 2 0
BITMAP
83
84
88
90
A0
C0
A0
90
88
84
82
ENDCHAR
STARTCHAR c108
ENCODING -1 108
SWIDTH 290 0
DWIDTH 9 0
BBX 9 17 0 0
BITMAP
6000
1000
1000
1000
0800
0800
0800
1800
1400
2400
2400
2400
4200
4200
8200
8200
8180
ENDCHAR
STARTCHAR c109
ENCODING -1 109
SWIDTH 387 0
DWIDTH 12 0
BBX 8 14 2 -3
BITMAP
81
81
81
81
81
81
81
81
83
C5
B9
80
80
80
ENDCHAR
STARTCHAR c110
ENCODING -1 110
SWIDTH 322 0
DWIDTH 10 0
BBX 8 11 1 0
BITMAP
86
81
81
41
41
22
22
24
14
18
10
ENDCHAR
STARTCHAR c111
ENCODING -1 111
SWIDTH 354 0
DWIDTH 11 0
BBX 9 11 1 0
BITMAP
1C00
6300
4100
8080
8080
8080
8080
8080
4100
6300
1C00
ENDCHAR
STARTCHAR c112
ENCODING -1 112
SWIDTH 387 0
DWIDTH 12 0
BBX 12 11 0 0
BITMAP
7FF0
9080
9080
1080
1080
1080
1080
1080
1080
1090
1060
ENDCHAR
STARTCHAR c113
ENCODING -1 113
SWIDTH 419 0
DWIDTH 13 0
BBX 9 17 2 0
BITMAP
1C00
2200
4100
4100
8080
8080
8080
8080
FF80
8080
8080
8080
8080
4100
4100
2200
1C00
ENDCHAR
STARTCHAR c114
ENCODING -1 114
SWIDTH 387 0
DWIDTH 12 0
BBX 9 15 2 -4
BITMAP
1C00
6300
4100
8080
8080
8080
8080
8080
8100
C300
BC00
8000
8000
8000
8000
ENDCHAR
STARTCHAR c115
ENCODING -1 115
SWIDTH 354 0
DWIDTH 11 0
BBX 10 11 1 0
BITMAP
1FC0
6200
4100
8080
8080
8080
8080
8080
4100
6300
1C00
ENDCHAR
STARTCHAR c116
ENCODING -1 116
SWIDTH 290 0
DWIDTH 9 0
BBX 8 11 1 0
BITMAP
7F
90
90
10
10
10
10
10
10
11
0E
ENDCHAR
STARTCHAR c117
ENCODING -1 117
SWIDTH 387 0
DWIDTH 12 0
BBX 9 11 2 0
BITMAP
9C00
8300
8100
8080
8080
8080
8080
8080
4100
6300
1C00
ENDCHAR
STARTCHAR c118
ENCODING -1 118
SWIDTH 612 0
DWIDTH 19 0
BBX 17 11 1 0
BITMAP
FFFF80
308600
408100
808080
808080
808080
808080
808080
414100
636300
1C1C00
ENDCHAR
STARTCHAR c119
ENCODING -1 119
SWIDTH 612 0
DWIDTH 19 0
BBX 17 11 1 0
BITMAP
1C9C00
608300
408100
808080
808080
808080
808080
808080
414100
636300
1C1C00
ENDCHAR
STARTCHAR c120
ENCODING -1 120
SWIDTH 258 0
DWIDTH 8 0
BBX 7 21 1 -4
BITMAP
FE
20
40
40
40
20
1E
20
40
80
80
80
80
80
40
30
0C
02
02
02
7C
ENDCHAR
STARTCHAR c121
ENCODING -1 121
SWIDTH 548 0
DWIDTH 17 0
BBX 13 15 2 -4
BITMAP
8208
8208
8208
8208
8208
8208
8208
8208
4210
6230
1FC0
0200
0200
0200
0200
ENDCHAR
STARTCHAR c122
ENCODING -1 122
SWIDTH 290 0
DWIDTH 9 0
BBX 8 21 1 -4
BITMAP
FF
18
20
40
40
80
80
80
80
80
80
40
40
20
18
06
01
01
01
02
3C
ENDCHAR
STARTCHAR c123
ENCODING -1 123
SWIDTH 258 0
DWIDTH 8 0
BBX 7 20 0 -4
BITMAP
06
08
10
10
10
10
10
10
20
C0
20
10
10
10
10
10
10
10
08
06
ENDCHAR
STARTCHAR c124
ENCODING -1 124
SWIDTH 161 0
DWIDTH 5 0
BBX 1 20 2 -4
BITMAP
80
80
80
80
80
80
80
80
80
80
80
80
80
80
80
80
80
80
80
80
ENDCHAR
STARTCHAR c125
ENCODING -1 125
SWIDTH 258 0
DWIDTH 8 0
BBX 7 20 1 -4
BITMAP
C0
20
10
10
10
10
10
10
08
06
08
10
10
10
10
10
10
10
20
C0
ENDCHAR
STARTCHAR c126
ENCODING -1 126
SWIDTH 387 0
DWIDTH 12 0
BBX 10 4 1 3
BITMAP
7040
8840
8440
8380
ENDCHAR
ENDFONT
